<?xml version="1.0" encoding="utf-8" ?>
<svg baseProfile="full" height="60" version="1.1" width="600" xmlns="http://www.w3.org/2000/svg" xmlns:ev="http://www.w3.org/2001/xml-events" xmlns:xlink="http://www.w3.org/1999/xlink"><defs /><path d="M5.000000 5.000000 L5.000000 5.000000 L35.000000 5.000000 L35.000000 45.000000 L5.000000 45.000000 L5.000000 5.000000" fill="#ffffff" stroke="#000000" stroke-width="2" /><text dominant-baseline="central" fill="#000000" font-family="monospace" font-size="24" font-weight="normal" stroke="#000000" text-anchor="middle" x="20.0" y="25.0">1</text><path d="M35.000000 5.000000 L35.000000 5.000000 L65.000000 5.000000 L65.000000 45.000000 L35.000000 45.000000 L35.000000 5.000000" fill="#ffffff" stroke="#000000" stroke-width="2" /><text dominant-baseline="central" fill="#000000" font-family="monospace" font-size="24" font-weight="normal" stroke="#000000" text-anchor="middle" x="50.0" y="25.0">2</text><path d="M65.000000 5.000000 L65.000000 5.000000 L95.000000 5.000000 L95.000000 45.000000 L65.000000 45.000000 L65.000000 5.000000" fill="#ffffff" stroke="#000000" stroke-width="2" /><text dominant-baseline="central" fill="#000000" font-family="monospace" font-size="24" font-weight="normal" stroke="#000000" text-anchor="middle" x="80.0" y="25.0">3</text><path d="M95.000000 5.000000 L95.000000 5.000000 L125.000000 5.000000 L125.000000 45.000000 L95.000000 45.000000 L95.000000 5.000000" fill="#ffffff" stroke="#000000" stroke-width="2" /><text dominant-baseline="central" fill="#000000" font-family="monospace" font-size="24" font-weight="normal" stroke="#000000" text-anchor="middle" x="110.0" y="25.0">4</text><path d="M125.000000 5.000000 L125.000000 5.000000 L155.000000 5.000000 L155.000000 45.000000 L125.000000 45.000000 L125.000000 5.000000" fill="#ffffff" stroke="#000000" stroke-width="2" /><text dominant-baseline="central" fill="#000000" font-family="monospace" font-size="24" font-weight="normal" stroke="#000000" text-anchor="middle" x="140.0" y="25.0">5</text><path d="M155.000000 5.000000 L155.000000 5.000000 L185.000000 5.000000 L185.000000 45.000000 L155.000000 45.000000 L155.000000 5.000000" fill="#ffffff" stroke="#000000" stroke-width="2" /><text dominant-baseline="central" fill="#000000" font-family="monospace" font-size="24" font-weight="normal" stroke="#000000" text-anchor="middle" x="170.0" y="25.0">6</text><path d="M185.000000 5.000000 L185.000000 5.000000 L255.000000 5.000000 L255.000000 45.000000 L185.000000 45.000000 L185.000000 5.000000" fill="#ffffff" stroke="#000000" stroke-width="2" /><text dominant-baseline="central" fill="#000000" font-family="monospace" font-size="24" font-weight="normal" stroke="#000000" text-anchor="middle" x="220.0" y="25.0">100</text></svg>