<?xml version="1.0" encoding="utf-8" ?>
<svg baseProfile="full" height="60" version="1.1" width="600" xmlns="http://www.w3.org/2000/svg" xmlns:ev="http://www.w3.org/2001/xml-events" xmlns:xlink="http://www.w3.org/1999/xlink"><defs /><path d="M5.000000 5.000000 L5.000000 5.000000 L32.000000 5.000000 L32.000000 45.000000 L5.000000 45.000000 Z" fill="#ffffff" stroke="#000000" stroke-width="2" /><text dominant-baseline="central" fill="#000000" font-family="monospace" font-size="24" font-weight="normal" stroke="#000000" text-anchor="middle" x="18.5" y="25.0">1</text><path d="M32.000000 5.000000 L32.000000 5.000000 L59.000000 5.000000 L59.000000 45.000000 L32.000000 45.000000 Z" fill="#ffffff" stroke="#000000" stroke-width="2" /><text dominant-baseline="central" fill="#000000" font-family="monospace" font-size="24" font-weight="normal" stroke="#000000" text-anchor="middle" x="45.5" y="25.0">2</text><path d="M59.000000 5.000000 L59.000000 5.000000 L137.000000 5.000000 L137.000000 45.000000 L59.000000 45.000000 Z" fill="#ffffff" stroke="#000000" stroke-width="2" /><text dominant-baseline="central" fill="#000000" font-family="monospace" font-size="24" font-weight="normal" stroke="#000000" text-anchor="middle" x="98.0" y="25.0">skip</text><path d="M137.000000 5.000000 L137.000000 5.000000 L164.000000 5.000000 L164.000000 45.000000 L137.000000 45.000000 Z" fill="#ffffff" stroke="#000000" stroke-width="2" /><text dominant-baseline="central" fill="#000000" font-family="monospace" font-size="24" font-weight="normal" stroke="#000000" text-anchor="middle" x="150.5" y="25.0">a</text><path d="M164.000000 5.000000 L164.000000 5.000000 L225.000000 5.000000 L225.000000 45.000000 L164.000000 45.000000 Z" fill="#ffffff" stroke="#000000" stroke-width="2" /><text dominant-baseline="central" fill="#000000" font-family="monospace" font-size="24" font-weight="normal" stroke="#000000" text-anchor="middle" x="194.5" y="25.0">few</text><path d="M225.000000 5.000000 L225.000000 5.000000 L269.000000 5.000000 L269.000000 45.000000 L225.000000 45.000000 Z" fill="#ffffff" stroke="#000000" stroke-width="2" /><text dominant-baseline="central" fill="#000000" font-family="monospace" font-size="24" font-weight="normal" stroke="#000000" text-anchor="middle" x="247.0" y="25.0">99</text><path d="M269.000000 5.000000 L269.000000 5.000000 L330.000000 5.000000 L330.000000 45.000000 L269.000000 45.000000 Z" fill="#ffffff" stroke="#000000" stroke-width="2" /><text dominant-baseline="central" fill="#000000" font-family="monospace" font-size="24" font-weight="normal" stroke="#000000" text-anchor="middle" x="299.5" y="25.0">100</text></svg>