<?xml version="1.0" encoding="utf-8" ?>
<svg baseProfile="full" height="60" version="1.1" width="600" xmlns="http://www.w3.org/2000/svg" xmlns:ev="http://www.w3.org/2001/xml-events" xmlns:xlink="http://www.w3.org/1999/xlink"><defs /><path d="M5.000000 5.000000 L5.000000 5.000000 L32.000000 5.000000 L32.000000 45.000000 L5.000000 45.000000 Z" fill="#ffffff" stroke="#000000" stroke-width="2" /><text dominant-baseline="central" fill="#000000" font-family="monospace" font-size="24" font-weight="normal" stroke="#000000" text-anchor="middle" x="18.5" y="25.0">1</text><path d="M32.000000 5.000000 L32.000000 5.000000 L59.000000 5.000000 L59.000000 45.000000 L32.000000 45.000000 Z" fill="#ffffff" stroke="#000000" stroke-width="2" /><text dominant-baseline="central" fill="#000000" font-family="monospace" font-size="24" font-weight="normal" stroke="#000000" text-anchor="middle" x="45.5" y="25.0">2</text><path d="M59.000000 5.000000 L59.000000 5.000000 L86.000000 5.000000 L86.000000 45.000000 L59.000000 45.000000 Z" fill="#ffffff" stroke="#000000" stroke-width="2" /><text dominant-baseline="central" fill="#000000" font-family="monospace" font-size="24" font-weight="normal" stroke="#000000" text-anchor="middle" x="72.5" y="25.0">3</text><path d="M86.000000 5.000000 L86.000000 5.000000 L113.000000 5.000000 L113.000000 45.000000 L86.000000 45.000000 Z" fill="#ffffff" stroke="#000000" stroke-width="2" /><text dominant-baseline="central" fill="#000000" font-family="monospace" font-size="24" font-weight="normal" stroke="#000000" text-anchor="middle" x="99.5" y="25.0">4</text><path d="M113.000000 5.000000 L113.000000 5.000000 L140.000000 5.000000 L140.000000 45.000000 L113.000000 45.000000 Z" fill="#ffffff" stroke="#000000" stroke-width="2" /><text dominant-baseline="central" fill="#000000" font-family="monospace" font-size="24" font-weight="normal" stroke="#000000" text-anchor="middle" x="126.5" y="25.0">5</text><path d="M140.000000 5.000000 L140.000000 5.000000 L167.000000 5.000000 L167.000000 45.000000 L140.000000 45.000000 Z" fill="#ffffff" stroke="#000000" stroke-width="2" /><text dominant-baseline="central" fill="#000000" font-family="monospace" font-size="24" font-weight="normal" stroke="#000000" text-anchor="middle" x="153.5" y="25.0">6</text><path d="M167.000000 5.000000 L167.000000 5.000000 L228.000000 5.000000 L228.000000 45.000000 L167.000000 45.000000 Z" fill="#ffffff" stroke="#000000" stroke-width="2" /><text dominant-baseline="central" fill="#000000" font-family="monospace" font-size="24" font-weight="normal" stroke="#000000" text-anchor="middle" x="197.5" y="25.0">100</text></svg>