<?xml version="1.0" encoding="utf-8" ?>
<svg baseProfile="full" height="60" version="1.1" width="600" xmlns="http://www.w3.org/2000/svg" xmlns:ev="http://www.w3.org/2001/xml-events" xmlns:xlink="http://www.w3.org/1999/xlink"><defs /><path d="M0.000000 0.000000 L0.000000 0.000000 L30.000000 0.000000 L30.000000 40.000000 L0.000000 40.000000 L0.000000 0.000000" fill="#ffffff" stroke="#000000" stroke-width="2" /><text dominant-baseline="central" fill="#000000" font-family="monospace" font-size="24" font-weight="normal" stroke="#000000" text-anchor="middle" x="15.0" y="20.0">1</text><path d="M30.000000 0.000000 L30.000000 0.000000 L60.000000 0.000000 L60.000000 40.000000 L30.000000 40.000000 L30.000000 0.000000" fill="#ffffff" stroke="#000000" stroke-width="2" /><text dominant-baseline="central" fill="#000000" font-family="monospace" font-size="24" font-weight="normal" stroke="#000000" text-anchor="middle" x="45.0" y="20.0">2</text><path d="M60.000000 0.000000 L60.000000 0.000000 L90.000000 0.000000 L90.000000 40.000000 L60.000000 40.000000 L60.000000 0.000000" fill="#ffffff" stroke="#000000" stroke-width="2" /><text dominant-baseline="central" fill="#000000" font-family="monospace" font-size="24" font-weight="normal" stroke="#000000" text-anchor="middle" x="75.0" y="20.0">3</text><path d="M90.000000 0.000000 L90.000000 0.000000 L120.000000 0.000000 L120.000000 40.000000 L90.000000 40.000000 L90.000000 0.000000" fill="#ffffff" stroke="#000000" stroke-width="2" /><text dominant-baseline="central" fill="#000000" font-family="monospace" font-size="24" font-weight="normal" stroke="#000000" text-anchor="middle" x="105.0" y="20.0">4</text><path d="M120.000000 0.000000 L120.000000 0.000000 L150.000000 0.000000 L150.000000 40.000000 L120.000000 40.000000 L120.000000 0.000000" fill="#ffffff" stroke="#000000" stroke-width="2" /><text dominant-baseline="central" fill="#000000" font-family="monospace" font-size="24" font-weight="normal" stroke="#000000" text-anchor="middle" x="135.0" y="20.0">5</text><path d="M150.000000 0.000000 L150.000000 0.000000 L180.000000 0.000000 L180.000000 40.000000 L150.000000 40.000000 L150.000000 0.000000" fill="#ffffff" stroke="#000000" stroke-width="2" /><text dominant-baseline="central" fill="#000000" font-family="monospace" font-size="24" font-weight="normal" stroke="#000000" text-anchor="middle" x="165.0" y="20.0">6</text></svg>